# xmcd CD database file
# Copyright (C) 1997 Ti Kan
# 
# Track frame offsets:
#     183
#     11865
#     24895
#     37243
#     49775
#     62688
#     75595
#     88020
#     100405
#     112655
#     124380
#     136293
#     148698
#     158423
#     169328
#     182865
#     193028
#     200965
#     215495
#     225808
#     234625
# 
# Disc length: 3274 seconds
# 
# Revision: 1
# Processed by: cddbd v1.4b41PL1 Copyright (c) Steve Scherf et al.
# Submitted via: DiscPlay 4.0.3
# 
DISCID=240cc815
DTITLE=Hank Williams - Vol II - Lovesick Blues
DYEAR=1900
DGENRE=
TTITLE0=I'm Satisfied With You
TTITLE1=On The Banks Of The Old Pontchartrain
TTITLE2=Fly Trouble
TTITLE3=Rootie Tootie
TTITLE4=I Can't Get You Off Of My Mind
TTITLE5=I'm A Long Gone Daddy
TTITLE6=Honky Tonkin'
TTITLE7=My Sweet Love Ain't Around
TTITLE8=The Blues Come Around
TTITLE9=A Mansion On The Hill
TTITLE10=I'll Be A Bachelor 'Til I Die
TTITLE11=Lovesick Blues
TTITLE12=Rockin' Chair Money
TTITLE13=We Live In Two Different Worlds
TTITLE14=The Devil's Train
TTITLE15=When God Dips His Love In My Heart
TTITLE16=I Wish I Had A Nickel
TTITLE17=At The First Fall Of Snow
TTITLE18=Please Don't Let Me Love You
TTITLE19=Jesus Died For Me
TTITLE20=Weary Blues From Waitin'
EXTD=
EXTT0=
EXTT1=
EXTT2=
EXTT3=
EXTT4=
EXTT5=
EXTT6=
EXTT7=
EXTT8=
EXTT9=
EXTT10=
EXTT11=
EXTT12=
EXTT13=
EXTT14=
EXTT15=
EXTT16=
EXTT17=
EXTT18=
EXTT19=
EXTT20=
PLAYORDER=
